# xmcd
#
# Track frame offsets:
#	187
#	20405
#	36590
#	51065
#	65432
#	76430
#	84090
#	97990
#	114100
#	131640
#	145570
#	161650
#
# Disc length: 2305 seconds
#
# Revision: 3
# Processed by: cddbd v1.5.1PL0 Copyright (c) Steve Scherf et al.
# Submitted via: audiograbber 1.83.01
#
DISCID=8f08ff0c
DTITLE=Kander and Ebb - Cabaret
DYEAR=1900
DGENRE=
TTITLE0=Willkommen
TTITLE1=Mein Herr
TTITLE2=Two Ladies
TTITLE3=Maybe This Time
TTITLE4=Sitting Pretty
TTITLE5=Tiller Girls
TTITLE6=Money Money
TTITLE7=Heiraten (Married)
TTITLE8=If You Could See Her
TTITLE9=Tomorrow Belongs To Me
TTITLE10=Cabaret
TTITLE11=Finale
EXTD=
EXTT0=
EXTT1=
EXTT2=
EXTT3=
EXTT4=
EXTT5=
EXTT6=
EXTT7=
EXTT8=
EXTT9=
EXTT10=
EXTT11=
PLAYORDER=
